<svg width="276" height="128" viewBox="0 0 276 128" fill="none" xmlns="http://www.w3.org/2000/svg">
<path d="M115.16 12.69C106.97 4.5 96.09 0 84.51 0C72.93 0 62.05 4.51001 53.86 12.7C47.46 19.1 43.31 27.15 41.8 35.89C41.65 36.77 41.52 37.66 41.43 38.56C41.33 39.44 41.26 40.33 41.22 41.22C41.18 41.93 41.17 42.64 41.17 43.36V49.25V51.9V54.55V86.7H73.32H75.97H78.62C78.66 85.98 78.69 85.25 78.69 84.51V78.69H76.04H49.18V54.47V49.1801V43.35C49.18 42.61 49.2 41.89 49.25 41.16C49.3 40.27 49.39 39.39 49.51 38.51C49.63 37.61 49.79 36.73 49.98 35.86C51.43 29.11 54.83 23.0801 59.54 18.3701C65.94 11.9701 74.77 8.01001 84.51 8.01001C103.99 8.01001 119.84 23.86 119.84 43.34C119.84 53.08 115.88 61.91 109.48 68.31C104.77 73.02 98.74 76.4101 91.99 77.8701V84.5C91.99 85.02 91.99 85.54 91.97 86.05C100.71 84.54 108.76 80.3901 115.16 73.9901C123.35 65.8 127.86 54.92 127.86 43.34C127.86 31.76 123.35 20.88 115.16 12.69Z" fill="url(#paint0_linear_101_2)"/>
<path d="M49.18 48.83H78.69V73.05V84.16C78.69 84.89 78.67 85.62 78.62 86.35C78.57 87.24 78.48 88.12 78.36 89C78.24 89.89 78.09 90.77 77.89 91.64C76.43 98.39 73.04 104.42 68.33 109.14C61.93 115.54 53.1 119.5 43.36 119.5C23.88 119.5 8.03003 103.65 8.03003 84.17C8.03003 74.43 12 65.6 18.39 59.2C23.1 54.49 29.14 51.1 35.88 49.64V43.02C35.88 42.5 35.88 41.98 35.9 41.47C27.16 42.97 19.11 47.13 12.7 53.53C4.51001 61.72 0 72.6 0 84.18C0 95.76 4.51 106.64 12.69 114.83C20.88 123.02 31.76 127.53 43.34 127.53C54.92 127.53 65.8 123.02 73.99 114.83C81.67 107.15 86.11 97.09 86.63 86.32C86.65 85.97 86.66 85.63 86.67 85.28C86.67 85.09 86.67 84.91 86.67 84.72C86.67 84.54 86.67 84.36 86.67 84.19V40.84H54.52H51.87H49.22C49.18 41.56 49.15 42.29 49.15 43.03V48.86L49.18 48.83Z" fill="url(#paint1_linear_101_2)"/>
<path d="M95.936 102.592C96.96 102.592 97.78 102.316 98.396 101.764C99.02 101.212 99.332 100.38 99.332 99.268C99.332 98.156 98.98 97.272 98.276 96.616C97.58 95.96 96.72 95.632 95.696 95.632C94.968 95.632 94.408 95.648 94.016 95.68V102.508C94.496 102.564 95.136 102.592 95.936 102.592ZM95.696 95.14C96.896 95.14 97.896 95.512 98.696 96.256C99.504 96.992 99.908 97.996 99.908 99.268C99.908 100.54 99.536 101.496 98.792 102.136C98.056 102.776 97.104 103.096 95.936 103.096C95.128 103.096 94.296 103.056 93.44 102.976V95.212C94.08 95.164 94.832 95.14 95.696 95.14ZM102.311 103V95.212H102.863V103H102.311ZM107.317 95.548C106.885 95.548 106.533 95.652 106.261 95.86C105.989 96.068 105.853 96.36 105.853 96.736C105.853 97.168 106.033 97.556 106.393 97.9C106.649 98.148 106.977 98.412 107.377 98.692C107.785 98.964 108.065 99.16 108.217 99.28C108.369 99.4 108.553 99.564 108.769 99.772C109.161 100.164 109.357 100.616 109.357 101.128C109.357 101.792 109.133 102.296 108.685 102.64C108.245 102.976 107.625 103.144 106.825 103.144C106.033 103.144 105.369 102.936 104.833 102.52L105.121 102.1C105.665 102.468 106.241 102.652 106.849 102.652C107.457 102.652 107.929 102.524 108.265 102.268C108.609 102.012 108.781 101.652 108.781 101.188C108.781 100.788 108.609 100.42 108.265 100.084C108.025 99.844 107.701 99.584 107.293 99.304C106.893 99.024 106.613 98.824 106.453 98.704C106.293 98.576 106.105 98.408 105.889 98.2C105.481 97.792 105.277 97.32 105.277 96.784C105.277 96.248 105.465 95.828 105.841 95.524C106.225 95.22 106.753 95.068 107.425 95.068C108.097 95.068 108.701 95.2 109.237 95.464L109.033 95.908C108.537 95.668 107.965 95.548 107.317 95.548ZM111.569 103V95.164H111.833L116.945 101.044C117.129 101.252 117.297 101.46 117.449 101.668C117.609 101.868 117.693 101.972 117.701 101.98C117.685 101.788 117.677 101.412 117.677 100.852V95.212H118.229V103.048H117.965L112.757 97.072L112.097 96.268C112.113 96.428 112.121 96.804 112.121 97.396V103H111.569ZM121.108 103V95.212H124.744V95.692H121.66V98.524H124.444V98.992H121.66V102.496H124.864V103H121.108ZM129.257 103H128.717V100.216L125.777 95.212H126.437L128.705 99.076C128.881 99.428 128.981 99.616 129.005 99.64C129.053 99.536 129.153 99.352 129.305 99.088L131.573 95.212H132.197L129.257 100.24V103ZM134.591 100.996V99.112H132.707V98.632H134.591V96.748H135.071V98.632H136.955V99.112H135.071V100.996H134.591ZM149.525 103V99.064H144.113V103H143.561V95.212H144.113V98.572H149.525V95.212H150.077V103H149.525ZM156.404 103.12C155.292 103.12 154.36 102.732 153.608 101.956C152.856 101.18 152.48 100.232 152.48 99.112C152.48 97.984 152.856 97.032 153.608 96.256C154.36 95.48 155.292 95.092 156.404 95.092C157.516 95.092 158.448 95.48 159.2 96.256C159.952 97.032 160.328 97.984 160.328 99.112C160.328 100.232 159.952 101.18 159.2 101.956C158.448 102.732 157.516 103.12 156.404 103.12ZM156.404 95.584C155.444 95.584 154.644 95.924 154.004 96.604C153.372 97.284 153.056 98.12 153.056 99.112C153.056 100.096 153.372 100.928 154.004 101.608C154.644 102.28 155.444 102.616 156.404 102.616C157.372 102.616 158.172 102.28 158.804 101.608C159.436 100.928 159.752 100.096 159.752 99.112C159.752 98.12 159.436 97.284 158.804 96.604C158.172 95.924 157.372 95.584 156.404 95.584ZM163.855 95.704H161.215V95.212H167.035V95.704H164.395V103H163.855V95.704ZM170.235 95.548C169.803 95.548 169.451 95.652 169.179 95.86C168.907 96.068 168.771 96.36 168.771 96.736C168.771 97.168 168.951 97.556 169.311 97.9C169.567 98.148 169.895 98.412 170.295 98.692C170.703 98.964 170.983 99.16 171.135 99.28C171.287 99.4 171.471 99.564 171.687 99.772C172.079 100.164 172.275 100.616 172.275 101.128C172.275 101.792 172.051 102.296 171.603 102.64C171.163 102.976 170.543 103.144 169.743 103.144C168.951 103.144 168.287 102.936 167.751 102.52L168.039 102.1C168.583 102.468 169.159 102.652 169.767 102.652C170.375 102.652 170.847 102.524 171.183 102.268C171.527 102.012 171.699 101.652 171.699 101.188C171.699 100.788 171.527 100.42 171.183 100.084C170.943 99.844 170.619 99.584 170.211 99.304C169.811 99.024 169.531 98.824 169.371 98.704C169.211 98.576 169.023 98.408 168.807 98.2C168.399 97.792 168.195 97.32 168.195 96.784C168.195 96.248 168.383 95.828 168.759 95.524C169.143 95.22 169.671 95.068 170.343 95.068C171.015 95.068 171.619 95.2 172.155 95.464L171.951 95.908C171.455 95.668 170.883 95.548 170.235 95.548ZM175.879 95.704H173.239V95.212H179.059V95.704H176.419V103H175.879V95.704ZM180.332 100.3L179.216 103H178.652L181.916 95.164H182.24L185.528 103H184.916L183.788 100.3H180.332ZM182.048 96.052C181.928 96.412 181.82 96.712 181.724 96.952L180.524 99.832H183.596L182.408 96.964C182.224 96.516 182.104 96.212 182.048 96.052ZM187.108 103V95.248C187.796 95.192 188.38 95.164 188.86 95.164C189.596 95.164 190.204 95.356 190.684 95.74C191.164 96.116 191.404 96.656 191.404 97.36C191.404 97.832 191.268 98.268 190.996 98.668C190.724 99.068 190.416 99.392 190.072 99.64C191.024 100.904 191.612 101.66 191.836 101.908C192.292 102.38 192.788 102.648 193.324 102.712L193.312 103.084C192.864 103.076 192.5 103.012 192.22 102.892C191.94 102.764 191.66 102.552 191.38 102.256C191.108 101.96 190.504 101.164 189.568 99.868C188.92 99.868 188.284 99.848 187.66 99.808V103H187.108ZM189.268 99.412C189.58 99.412 189.916 99.204 190.276 98.788C190.636 98.372 190.816 97.888 190.816 97.336C190.816 96.784 190.628 96.364 190.252 96.076C189.876 95.788 189.388 95.644 188.788 95.644C188.468 95.644 188.092 95.66 187.66 95.692V99.352C188.236 99.392 188.772 99.412 189.268 99.412ZM200.713 101.104L202.957 95.368H203.305L205.261 101.14L205.549 102.112C205.573 101.96 205.673 101.64 205.849 101.152L207.841 95.212H208.417L205.705 103.048H205.381C204.045 99.216 203.353 97.224 203.305 97.072C203.233 96.856 203.161 96.644 203.089 96.436C203.049 96.572 202.941 96.856 202.765 97.288L200.497 103.048H200.173L197.437 95.212H198.049L200.029 101.056C200.141 101.376 200.245 101.732 200.341 102.124C200.381 101.964 200.505 101.624 200.713 101.104ZM209.91 100.3L208.794 103H208.23L211.494 95.164H211.818L215.106 103H214.494L213.366 100.3H209.91ZM211.626 96.052C211.506 96.412 211.398 96.712 211.302 96.952L210.102 99.832H213.174L211.986 96.964C211.802 96.516 211.682 96.212 211.626 96.052ZM217.34 95.704H214.7V95.212H220.52V95.704H217.88V103H217.34V95.704ZM227.938 102.616C227.338 102.952 226.502 103.12 225.43 103.12C224.366 103.12 223.426 102.736 222.61 101.968C221.802 101.2 221.398 100.248 221.398 99.112C221.398 97.968 221.75 97.012 222.454 96.244C223.166 95.476 224.082 95.092 225.202 95.092C226.106 95.092 226.99 95.232 227.854 95.512L227.71 95.968C226.878 95.712 226.018 95.584 225.13 95.584C224.242 95.584 223.494 95.924 222.886 96.604C222.286 97.276 221.986 98.104 221.986 99.088C221.986 100.064 222.334 100.896 223.03 101.584C223.734 102.272 224.546 102.616 225.466 102.616C226.386 102.616 227.15 102.488 227.758 102.232L227.938 102.616ZM235.869 103V99.064H230.457V103H229.905V95.212H230.457V98.572H235.869V95.212H236.421V103H235.869ZM243.628 103V95.26C244.228 95.196 244.86 95.164 245.524 95.164C246.196 95.164 246.764 95.344 247.228 95.704C247.692 96.056 247.924 96.592 247.924 97.312C247.924 98.032 247.608 98.624 246.976 99.088C246.344 99.544 245.596 99.772 244.732 99.772C244.692 99.772 244.648 99.772 244.6 99.772V99.388C244.632 99.388 244.66 99.388 244.684 99.388C245.396 99.388 246.016 99.2 246.544 98.824C247.072 98.448 247.336 97.96 247.336 97.36C247.336 96.76 247.148 96.324 246.772 96.052C246.404 95.78 245.916 95.644 245.308 95.644C244.988 95.644 244.612 95.66 244.18 95.692V103H243.628ZM249.871 100.3L248.755 103H248.191L251.455 95.164H251.779L255.067 103H254.455L253.327 100.3H249.871ZM251.587 96.052C251.467 96.412 251.359 96.712 251.263 96.952L250.063 99.832H253.135L251.947 96.964C251.763 96.516 251.643 96.212 251.587 96.052ZM256.647 103V95.248C257.335 95.192 257.919 95.164 258.399 95.164C259.135 95.164 259.743 95.356 260.223 95.74C260.703 96.116 260.943 96.656 260.943 97.36C260.943 97.832 260.807 98.268 260.535 98.668C260.263 99.068 259.955 99.392 259.611 99.64C260.563 100.904 261.151 101.66 261.375 101.908C261.831 102.38 262.327 102.648 262.863 102.712L262.851 103.084C262.403 103.076 262.039 103.012 261.759 102.892C261.479 102.764 261.199 102.552 260.919 102.256C260.647 101.96 260.043 101.164 259.107 99.868C258.459 99.868 257.823 99.848 257.199 99.808V103H256.647ZM258.807 99.412C259.119 99.412 259.455 99.204 259.815 98.788C260.175 98.372 260.355 97.888 260.355 97.336C260.355 96.784 260.167 96.364 259.791 96.076C259.415 95.788 258.927 95.644 258.327 95.644C258.007 95.644 257.631 95.66 257.199 95.692V99.352C257.775 99.392 258.311 99.412 258.807 99.412ZM264.777 95.704H262.137V95.212H267.957V95.704H265.317V103H264.777V95.704ZM271.769 103H271.229V100.216L268.289 95.212H268.949L271.217 99.076C271.393 99.428 271.493 99.616 271.517 99.64C271.565 99.536 271.665 99.352 271.817 99.088L274.085 95.212H274.709L271.769 100.24V103Z" fill="white"/>
<path d="M93.84 117V112.457H95.961V112.737H94.162V114.389H95.786V114.662H94.162V116.706H96.031V117H93.84ZM97.3195 117V112.429H97.4735L100.455 115.859C100.563 115.98 100.661 116.102 100.749 116.223C100.843 116.34 100.892 116.4 100.896 116.405C100.887 116.293 100.882 116.074 100.882 115.747V112.457H101.204V117.028H101.05L98.0125 113.542L97.6275 113.073C97.6368 113.166 97.6415 113.386 97.6415 113.731V117H97.3195ZM102.884 116.482V112.457H103.199V116.279C103.199 116.657 103.141 116.991 103.024 117.28C102.907 117.569 102.772 117.793 102.618 117.952C102.464 118.111 102.266 118.276 102.023 118.449L101.876 118.239C102.548 117.749 102.884 117.163 102.884 116.482ZM106.848 117.07C106.199 117.07 105.656 116.844 105.217 116.391C104.778 115.938 104.559 115.385 104.559 114.732C104.559 114.074 104.778 113.519 105.217 113.066C105.656 112.613 106.199 112.387 106.848 112.387C107.497 112.387 108.04 112.613 108.479 113.066C108.918 113.519 109.137 114.074 109.137 114.732C109.137 115.385 108.918 115.938 108.479 116.391C108.04 116.844 107.497 117.07 106.848 117.07ZM106.848 112.674C106.288 112.674 105.821 112.872 105.448 113.269C105.079 113.666 104.895 114.153 104.895 114.732C104.895 115.306 105.079 115.791 105.448 116.188C105.821 116.58 106.288 116.776 106.848 116.776C107.413 116.776 107.879 116.58 108.248 116.188C108.617 115.791 108.801 115.306 108.801 114.732C108.801 114.153 108.617 113.666 108.248 113.269C107.879 112.872 107.413 112.674 106.848 112.674ZM111.705 117H111.39V115.376L109.675 112.457H110.06L111.383 114.711C111.485 114.916 111.544 115.026 111.558 115.04C111.586 114.979 111.644 114.872 111.733 114.718L113.056 112.457H113.42L111.705 115.39V117ZM118.018 115.894L119.327 112.548H119.53L120.671 115.915L120.839 116.482C120.853 116.393 120.912 116.207 121.014 115.922L122.176 112.457H122.512L120.93 117.028H120.741C119.962 114.793 119.558 113.631 119.53 113.542C119.488 113.416 119.446 113.292 119.404 113.171C119.381 113.25 119.318 113.416 119.215 113.668L117.892 117.028H117.703L116.107 112.457H116.464L117.619 115.866C117.685 116.053 117.745 116.26 117.801 116.489C117.825 116.396 117.897 116.197 118.018 115.894ZM123.383 115.425L122.732 117H122.403L124.307 112.429H124.496L126.414 117H126.057L125.399 115.425H123.383ZM124.384 112.947C124.314 113.157 124.251 113.332 124.195 113.472L123.495 115.152H125.287L124.594 113.479C124.487 113.218 124.417 113.04 124.384 112.947ZM127.717 112.744H126.177V112.457H129.572V112.744H128.032V117H127.717V112.744ZM133.899 116.776C133.549 116.972 133.062 117.07 132.436 117.07C131.816 117.07 131.267 116.846 130.791 116.398C130.32 115.95 130.084 115.395 130.084 114.732C130.084 114.065 130.29 113.507 130.7 113.059C131.116 112.611 131.65 112.387 132.303 112.387C132.831 112.387 133.346 112.469 133.85 112.632L133.766 112.898C133.281 112.749 132.779 112.674 132.261 112.674C131.743 112.674 131.307 112.872 130.952 113.269C130.602 113.661 130.427 114.144 130.427 114.718C130.427 115.287 130.63 115.773 131.036 116.174C131.447 116.575 131.921 116.776 132.457 116.776C132.994 116.776 133.44 116.701 133.794 116.552L133.899 116.776ZM138.526 117V114.704H135.369V117H135.047V112.457H135.369V114.417H138.526V112.457H138.848V117H138.526ZM140.529 117V112.457H140.851V117H140.529ZM142.532 117V112.429H142.686L145.668 115.859C145.776 115.98 145.874 116.102 145.962 116.223C146.056 116.34 146.105 116.4 146.109 116.405C146.1 116.293 146.095 116.074 146.095 115.747V112.457H146.417V117.028H146.263L143.225 113.542L142.84 113.073C142.85 113.166 142.854 113.386 142.854 113.731V117H142.532ZM149.994 112.674C149.476 112.674 149.04 112.872 148.685 113.269C148.335 113.661 148.16 114.144 148.16 114.718C148.16 115.292 148.358 115.78 148.755 116.181C149.152 116.578 149.618 116.776 150.155 116.776C150.696 116.776 151.116 116.713 151.415 116.587V114.718H151.737V116.734C151.373 116.958 150.857 117.07 150.19 117.07C149.523 117.07 148.96 116.844 148.503 116.391C148.046 115.938 147.817 115.383 147.817 114.725C147.817 114.062 148.022 113.507 148.433 113.059C148.848 112.611 149.383 112.387 150.036 112.387C150.563 112.387 151.079 112.469 151.583 112.632L151.499 112.898C151.014 112.749 150.512 112.674 149.994 112.674ZM156.942 115.894L158.251 112.548H158.454L159.595 115.915L159.763 116.482C159.777 116.393 159.836 116.207 159.938 115.922L161.1 112.457H161.436L159.854 117.028H159.665C158.886 114.793 158.482 113.631 158.454 113.542C158.412 113.416 158.37 113.292 158.328 113.171C158.305 113.25 158.242 113.416 158.139 113.668L156.816 117.028H156.627L155.031 112.457H155.388L156.543 115.866C156.609 116.053 156.669 116.26 156.725 116.489C156.749 116.396 156.821 116.197 156.942 115.894ZM162.363 117V112.457H162.685V117H162.363ZM165.178 112.744H163.638V112.457H167.033V112.744H165.493V117H165.178V112.744ZM171.462 117V114.704H168.305V117H167.983V112.457H168.305V114.417H171.462V112.457H171.784V117H171.462ZM177.261 117H176.946V115.376L175.231 112.457H175.616L176.939 114.711C177.042 114.916 177.1 115.026 177.114 115.04C177.142 114.979 177.201 114.872 177.289 114.718L178.612 112.457H178.976L177.261 115.39V117ZM181.797 117.07C181.149 117.07 180.605 116.844 180.166 116.391C179.728 115.938 179.508 115.385 179.508 114.732C179.508 114.074 179.728 113.519 180.166 113.066C180.605 112.613 181.149 112.387 181.797 112.387C182.446 112.387 182.99 112.613 183.428 113.066C183.867 113.519 184.086 114.074 184.086 114.732C184.086 115.385 183.867 115.938 183.428 116.391C182.99 116.844 182.446 117.07 181.797 117.07ZM181.797 112.674C181.237 112.674 180.771 112.872 180.397 113.269C180.029 113.666 179.844 114.153 179.844 114.732C179.844 115.306 180.029 115.791 180.397 116.188C180.771 116.58 181.237 116.776 181.797 116.776C182.362 116.776 182.829 116.58 183.197 116.188C183.566 115.791 183.75 115.306 183.75 114.732C183.75 114.153 183.566 113.666 183.197 113.269C182.829 112.872 182.362 112.674 181.797 112.674ZM188.723 116.531C188.415 116.89 187.946 117.07 187.316 117.07C186.686 117.07 186.217 116.89 185.909 116.531C185.601 116.172 185.447 115.675 185.447 115.04V112.457H185.769V115.04C185.769 116.202 186.285 116.783 187.316 116.783C188.348 116.783 188.863 116.202 188.863 115.04V112.457H189.185V115.04C189.185 115.675 189.031 116.172 188.723 116.531ZM190.821 117V112.478C191.223 112.445 191.563 112.429 191.843 112.429C192.273 112.429 192.627 112.541 192.907 112.765C193.187 112.984 193.327 113.299 193.327 113.71C193.327 113.985 193.248 114.24 193.089 114.473C192.931 114.706 192.751 114.895 192.55 115.04C193.106 115.777 193.449 116.218 193.579 116.363C193.845 116.638 194.135 116.795 194.447 116.832L194.44 117.049C194.179 117.044 193.967 117.007 193.803 116.937C193.64 116.862 193.477 116.739 193.313 116.566C193.155 116.393 192.802 115.929 192.256 115.173C191.878 115.173 191.507 115.161 191.143 115.138V117H190.821ZM192.081 114.907C192.263 114.907 192.459 114.786 192.669 114.543C192.879 114.3 192.984 114.018 192.984 113.696C192.984 113.374 192.875 113.129 192.655 112.961C192.436 112.793 192.151 112.709 191.801 112.709C191.615 112.709 191.395 112.718 191.143 112.737V114.872C191.479 114.895 191.792 114.907 192.081 114.907ZM197.603 117V112.457H199.934V112.737H197.925V114.389H199.759V114.662H197.925V117H197.603ZM201.178 117V112.478C201.579 112.445 201.92 112.429 202.2 112.429C202.629 112.429 202.984 112.541 203.264 112.765C203.544 112.984 203.684 113.299 203.684 113.71C203.684 113.985 203.605 114.24 203.446 114.473C203.287 114.706 203.108 114.895 202.907 115.04C203.462 115.777 203.805 116.218 203.936 116.363C204.202 116.638 204.491 116.795 204.804 116.832L204.797 117.049C204.536 117.044 204.323 117.007 204.16 116.937C203.997 116.862 203.833 116.739 203.67 116.566C203.511 116.393 203.159 115.929 202.613 115.173C202.235 115.173 201.864 115.161 201.5 115.138V117H201.178ZM202.438 114.907C202.62 114.907 202.816 114.786 203.026 114.543C203.236 114.3 203.341 114.018 203.341 113.696C203.341 113.374 203.231 113.129 203.012 112.961C202.793 112.793 202.508 112.709 202.158 112.709C201.971 112.709 201.752 112.718 201.5 112.737V114.872C201.836 114.895 202.149 114.907 202.438 114.907ZM205.437 117V112.457H205.759V117H205.437ZM207.44 117V112.457H209.561V112.737H207.762V114.389H209.386V114.662H207.762V116.706H209.631V117H207.44ZM210.919 117V112.429H211.073L214.055 115.859C214.162 115.98 214.26 116.102 214.349 116.223C214.442 116.34 214.491 116.4 214.496 116.405C214.487 116.293 214.482 116.074 214.482 115.747V112.457H214.804V117.028H214.65L211.612 113.542L211.227 113.073C211.236 113.166 211.241 113.386 211.241 113.731V117H210.919ZM217.94 116.762C218.537 116.762 219.015 116.601 219.375 116.279C219.739 115.957 219.921 115.472 219.921 114.823C219.921 114.174 219.715 113.659 219.305 113.276C218.899 112.893 218.397 112.702 217.8 112.702C217.375 112.702 217.048 112.711 216.82 112.73V116.713C217.1 116.746 217.473 116.762 217.94 116.762ZM217.8 112.415C218.5 112.415 219.083 112.632 219.55 113.066C220.021 113.495 220.257 114.081 220.257 114.823C220.257 115.565 220.04 116.123 219.606 116.496C219.176 116.869 218.621 117.056 217.94 117.056C217.468 117.056 216.983 117.033 216.484 116.986V112.457C216.857 112.429 217.296 112.415 217.8 112.415ZM222.575 112.653C222.323 112.653 222.118 112.714 221.959 112.835C221.801 112.956 221.721 113.127 221.721 113.346C221.721 113.598 221.826 113.824 222.036 114.025C222.186 114.17 222.377 114.324 222.61 114.487C222.848 114.646 223.012 114.76 223.1 114.83C223.189 114.9 223.296 114.996 223.422 115.117C223.651 115.346 223.765 115.609 223.765 115.908C223.765 116.295 223.635 116.589 223.373 116.79C223.117 116.986 222.755 117.084 222.288 117.084C221.826 117.084 221.439 116.963 221.126 116.72L221.294 116.475C221.612 116.69 221.948 116.797 222.302 116.797C222.657 116.797 222.932 116.722 223.128 116.573C223.329 116.424 223.429 116.214 223.429 115.943C223.429 115.71 223.329 115.495 223.128 115.299C222.988 115.159 222.799 115.007 222.561 114.844C222.328 114.681 222.165 114.564 222.071 114.494C221.978 114.419 221.868 114.321 221.742 114.2C221.504 113.962 221.385 113.687 221.385 113.374C221.385 113.061 221.495 112.816 221.714 112.639C221.938 112.462 222.246 112.373 222.638 112.373C223.03 112.373 223.383 112.45 223.695 112.604L223.576 112.863C223.287 112.723 222.953 112.653 222.575 112.653Z" fill="white"/>
<defs>
<linearGradient id="paint0_linear_101_2" x1="41.16" y1="43.35" x2="127.85" y2="43.35" gradientUnits="userSpaceOnUse">
<stop stop-color="#0A0C35"/>
<stop offset="1" stop-color="#2DF4F2"/>
</linearGradient>
<linearGradient id="paint1_linear_101_2" x1="43.335" y1="40.84" x2="43" y2="107.5" gradientUnits="userSpaceOnUse">
<stop stop-color="#F3E715"/>
<stop offset="1" stop-color="#27785F"/>
</linearGradient>
</defs>
</svg>
